<?xml version="1.0" encoding="utf-8"?>
<!DOCTYPE svg PUBLIC "-//W3C//DTD SVG 1.0//EN" "http://www.w3.org/TR/2001/REC-SVG-20010904/DTD/svg10.dtd">
<svg version="1.0" xmlns="http://www.w3.org/2000/svg" width="521px" height="479px" viewBox="0 0 521 479" preserveAspectRatio="xMidYMid meet">
 <g fill="#5c00f6">
  <path d="M 256.9 425.3 l -2.7 -1.6 -0.7 -11.1 -0.7 -11.1 -1.4 -7 c -3.4 -17.1 -8 -28.6 -14.5 -36 l -3.1 -3.5 -1.2 0 c -0.6 0 -4.5 1.7 -8.6 3.8 -10 5.2 -24.6 10.6 -35 13.1 l -8.5 2 -10.1 1.1 -10.1 1.1 -9.4 -1.1 c -15.7 -1.8 -23.3 -4 -37.5 -11.1 l -10.1 -5.1 -5.5 -4.1 c -6.7 -5.1 -17.8 -14.9 -17.8 -15.8 0 -0.9 17.5 -9.4 23.2 -11.3 8.5 -2.9 19.5 -5.4 28.3 -6.6 9.7 -1.2 10.7 -1.6 8.5 -3 l -1.5 -1 -3 0 c -6.3 0 -25.6 -4.4 -35.5 -8.1 -8.5 -3.2 -22 -10.2 -30.2 -15.7 l -7.4 -5 -7.9 -7.3 -7.8 -7.4 -7.2 -9.6 -7.2 -9.6 -5.5 -10.9 c -6.5 -12.7 -9.1 -19.7 -11.8 -32 l -2 -8.9 -0.6 -13.5 -0.6 -13.5 1.1 -8 1.1 -7.9 0.9 -0.9 c 0.4 -0.4 6.8 -2.3 14.2 -4.1 l 13.4 -3.4 10.3 -1.1 c 13 -1.4 22.4 -1.4 35.4 0 l 10.3 1.1 11 2.8 c 6.1 1.5 15.5 4.4 21 6.5 l 10 3.7 9.1 4.9 c 5 2.7 13.1 7.7 18 11.1 l 8.8 6.3 9.2 8.8 c 5 4.8 9.6 8.7 10.2 8.7 l 1.1 0 -1.1 -3.2 c -3.2 -10.6 -4.5 -16.2 -6.4 -28.8 l -1.6 -10.5 1.1 -11.5 c 0.7 -6.3 1.7 -13.3 2.2 -15.5 5.1 -19.9 13.5 -37.2 25.6 -52.2 5.5 -7 15.3 -16.8 20.8 -20.8 2.2 -1.7 4.2 -3.2 4.5 -3.6 1.1 -1.2 9.7 -6.8 13.9 -8.9 l 4.4 -2.2 2.6 1.3 c 15.4 7.8 36 26.5 46.7 42.4 9.9 14.6 16.7 30.8 19.9 47.5 l 1.5 7.5 0 13.4 0 13.5 -1.1 6 c -0.6 3.4 -2.4 10.3 -4 15.3 -3.4 10.7 -3.3 10.3 -1.6 10.3 l 1.3 0 5.4 -5.6 c 14.5 -14.8 32.4 -26.9 53 -35.7 l 8.5 -3.6 12 -3.5 12.1 -3.4 13.4 -1.7 13.5 -1.8 13 0.6 c 7.2 0.4 15.7 1.1 19 1.7 6.5 1.2 24.5 5.7 28 7 l 2.2 0.8 1.2 7.7 1.1 7.6 0 9.7 0 9.7 -1.5 9 c -3 18.3 -7.5 31.1 -16.6 47 -13.5 23.4 -32.1 41.2 -55.7 53 -14.4 7.2 -27.2 11.2 -42.7 13.5 -4.4 0.6 -9 1.3 -10.3 1.6 l -2.3 0.5 0.6 0.8 0.5 0.9 8.7 1.2 c 17.4 2.3 25.4 4.7 41 12.1 l 10.2 4.9 -0.5 1.3 c -0.9 2 -14.5 13.6 -20.9 17.8 -3.3 2.2 -9.7 5.7 -14.1 7.8 l -8.1 4 -8.4 2.4 -8.4 2.5 -9.4 1.1 -9.4 1 -10.6 -1 -10.6 -1.1 -8.5 -1.9 -8.5 -1.9 -9.5 -3.7 c -5.2 -2 -12.9 -5.4 -17 -7.5 -4.1 -2.1 -8 -3.8 -8.6 -3.8 -0.5 0 -2.4 1.5 -4.1 3.3 l -3.2 3.2 -3.5 7.5 -3.5 7.5 -2.5 10 c -2.7 10.8 -4.6 24 -4.6 32 l 0 5.1 -2.9 1.7 c -3.5 2 -3 2 -6.2 0 z  m 4.7 -46 c 4.9 -15.1 13.4 -32.2 22.1 -44.6 l 5.7 -8.2 9.6 -9.6 9.5 -9.5 7.5 -5.6 c 6.1 -4.5 31.3 -19.8 32.6 -19.8 0.6 0 24.8 -14.6 33.8 -20.4 17.2 -11.2 38.4 -27.2 53.6 -40.7 9.7 -8.6 24 -22.9 24 -24 l 0 -0.8 -1.7 0.6 c -1 0.3 -4.3 2.5 -7.3 4.8 -18.2 13.9 -57.2 38.7 -82.7 52.6 -4.3 2.3 -9.3 5.1 -11.1 6.1 -3.6 2 -14.9 8 -27.2 14.5 -17.8 9.4 -31.1 19.4 -45.1 34 l -8.7 9 -4.8 7.2 c -2.6 3.9 -4.8 7 -4.9 6.9 -0.1 -0.2 0.3 -11.5 0.8 -25.3 l 0.9 -25 -1.1 -45.5 c -1.5 -59.7 -3.5 -100.4 -5.7 -114.8 l -0.5 -3.2 -0.9 0 -0.8 0 -0.6 2.7 c -0.7 3.6 -2.4 27.4 -3.8 53.3 l -1 20.5 -0.7 68.4 -0.6 68.5 -3.9 -6.5 -3.9 -6.4 -12.6 -12.5 -12.6 -12.5 -10.5 -7.1 -10.5 -7.1 -13 -6.8 c -7.1 -3.7 -13.4 -7.1 -14 -7.5 -0.5 -0.4 -6.4 -3.5 -13 -7 -6.6 -3.5 -13.2 -7.1 -14.7 -8.2 -1.4 -1 -2.9 -1.8 -3.2 -1.8 -0.4 0 -2.3 -1.1 -4.4 -2.4 -2 -1.3 -9.8 -6.1 -17.2 -10.6 -16.6 -10.2 -30.9 -19.7 -46.1 -30.7 -6.4 -4.5 -11.9 -8.3 -12.3 -8.3 -0.3 0 -0.6 0.5 -0.6 1.2 l 0 1.2 9.8 9.3 c 29.3 28.2 63.6 53.1 103.2 75.1 12 6.6 24.1 14 30 18.1 l 6.4 4.6 9.6 9.5 c 11.4 11.3 13.1 13.3 19.7 23.1 8.5 12.6 14 24.2 19.8 41.7 0.2 0.6 0.9 1.2 1.5 1.2 l 1.1 0 0.5 -1.7 z "/>
 </g>
</svg>